<svg width="300" height="190" viewBox="0 0 300 190" fill="none" xmlns="http://www.w3.org/2000/svg">
<g clip-path="url(#clip0_1177_2106)">
<mask id="mask0_1177_2106" style="mask-type:alpha" maskUnits="userSpaceOnUse" x="0" y="0" width="300" height="190">
<rect width="300" height="190" rx="12" fill="#FF6651"/>
</mask>
<g mask="url(#mask0_1177_2106)">
<rect width="300" height="190" fill="#0A6EE1"/>
<path fill-rule="evenodd" clip-rule="evenodd" d="M300 56.1604V178C300 184.627 294.627 190 288 190H157.843C165.588 116.962 225.751 59.5712 300 56.1604Z" fill="#22AB67"/>
</g>
<path d="M30.804 135.116V136.404H26.562V139.47H30.062V140.702H26.562V145H24.966V135.116H30.804ZM39.3938 140.772C39.3938 141.033 39.3751 141.262 39.3378 141.458H33.4018C33.4298 142.251 33.6491 142.839 34.0598 143.222C34.4704 143.605 34.9791 143.796 35.5858 143.796C36.1178 143.796 36.5658 143.661 36.9298 143.39C37.3031 143.119 37.5318 142.76 37.6158 142.312H39.3238C39.2211 142.853 39.0064 143.334 38.6798 143.754C38.3531 144.174 37.9284 144.505 37.4058 144.748C36.8831 144.981 36.2998 145.098 35.6558 145.098C34.9091 145.098 34.2464 144.939 33.6678 144.622C33.0984 144.305 32.6504 143.847 32.3238 143.25C31.9971 142.653 31.8338 141.948 31.8338 141.136C31.8338 140.333 31.9971 139.633 32.3238 139.036C32.6504 138.439 33.0984 137.981 33.6678 137.664C34.2464 137.347 34.9091 137.188 35.6558 137.188C36.4118 137.188 37.0698 137.347 37.6298 137.664C38.1991 137.972 38.6331 138.401 38.9318 138.952C39.2398 139.493 39.3938 140.1 39.3938 140.772ZM37.7838 140.73C37.8024 140.226 37.7138 139.806 37.5178 139.47C37.3311 139.125 37.0698 138.873 36.7338 138.714C36.4071 138.546 36.0478 138.462 35.6558 138.462C35.0304 138.462 34.5078 138.653 34.0878 139.036C33.6678 139.419 33.4391 139.983 33.4018 140.73H37.7838ZM42.5308 134.64V145H40.9348V134.64H42.5308ZM51.6301 140.772C51.6301 141.033 51.6114 141.262 51.5741 141.458H45.6381C45.6661 142.251 45.8854 142.839 46.2961 143.222C46.7068 143.605 47.2154 143.796 47.8221 143.796C48.3541 143.796 48.8021 143.661 49.1661 143.39C49.5394 143.119 49.7681 142.76 49.8521 142.312H51.5601C51.4574 142.853 51.2428 143.334 50.9161 143.754C50.5894 144.174 50.1648 144.505 49.6421 144.748C49.1194 144.981 48.5361 145.098 47.8921 145.098C47.1454 145.098 46.4828 144.939 45.9041 144.622C45.3348 144.305 44.8868 143.847 44.5601 143.25C44.2334 142.653 44.0701 141.948 44.0701 141.136C44.0701 140.333 44.2334 139.633 44.5601 139.036C44.8868 138.439 45.3348 137.981 45.9041 137.664C46.4828 137.347 47.1454 137.188 47.8921 137.188C48.6481 137.188 49.3061 137.347 49.8661 137.664C50.4354 137.972 50.8694 138.401 51.1681 138.952C51.4761 139.493 51.6301 140.1 51.6301 140.772ZM50.0201 140.73C50.0388 140.226 49.9501 139.806 49.7541 139.47C49.5674 139.125 49.3061 138.873 48.9701 138.714C48.6434 138.546 48.2841 138.462 47.8921 138.462C47.2668 138.462 46.7441 138.653 46.3241 139.036C45.9041 139.419 45.6754 139.983 45.6381 140.73H50.0201ZM56.6011 137.188C57.5997 137.188 58.4257 137.454 59.0791 137.986C59.7324 138.509 60.1384 139.223 60.2971 140.128H58.6031C58.5097 139.643 58.2811 139.265 57.9171 138.994C57.5624 138.714 57.1144 138.574 56.5731 138.574C55.9571 138.574 55.4437 138.793 55.0331 139.232C54.6224 139.661 54.4171 140.296 54.4171 141.136C54.4171 141.976 54.6224 142.615 55.0331 143.054C55.4437 143.493 55.9571 143.712 56.5731 143.712C57.1144 143.712 57.5624 143.572 57.9171 143.292C58.2811 143.012 58.5097 142.629 58.6031 142.144H60.2971C60.1384 143.049 59.7324 143.768 59.0791 144.3C58.4257 144.832 57.5997 145.098 56.6011 145.098C55.8544 145.098 55.1917 144.939 54.6131 144.622C54.0437 144.305 53.5957 143.847 53.2691 143.25C52.9424 142.653 52.7791 141.948 52.7791 141.136C52.7791 140.333 52.9424 139.633 53.2691 139.036C53.5957 138.439 54.0437 137.981 54.6131 137.664C55.1917 137.347 55.8544 137.188 56.6011 137.188ZM61.615 135.046C61.615 134.775 61.7084 134.551 61.895 134.374C62.0817 134.197 62.329 134.108 62.637 134.108C62.945 134.108 63.1924 134.197 63.379 134.374C63.575 134.551 63.673 134.775 63.673 135.046C63.673 135.317 63.575 135.536 63.379 135.704C63.1924 135.872 62.945 135.956 62.637 135.956C62.329 135.956 62.0817 135.872 61.895 135.704C61.7084 135.536 61.615 135.317 61.615 135.046ZM63.435 137.286V145H61.839V137.286H63.435ZM68.4604 137.188C69.1604 137.188 69.7577 137.361 70.2524 137.706C70.7471 138.051 71.0971 138.509 71.3024 139.078V137.286H72.8984V145H71.3024V143.208C71.0971 143.777 70.7471 144.235 70.2524 144.58C69.7577 144.925 69.1604 145.098 68.4604 145.098C67.7884 145.098 67.1864 144.939 66.6544 144.622C66.1317 144.305 65.7211 143.847 65.4224 143.25C65.1237 142.653 64.9744 141.948 64.9744 141.136C64.9744 140.333 65.1237 139.633 65.4224 139.036C65.7211 138.439 66.1317 137.981 66.6544 137.664C67.1864 137.347 67.7884 137.188 68.4604 137.188ZM68.9504 138.588C68.2411 138.588 67.6717 138.817 67.2424 139.274C66.8224 139.722 66.6124 140.343 66.6124 141.136C66.6124 141.929 66.8224 142.555 67.2424 143.012C67.6717 143.46 68.2411 143.684 68.9504 143.684C69.3984 143.684 69.7997 143.581 70.1544 143.376C70.5091 143.161 70.7891 142.863 70.9944 142.48C71.1997 142.097 71.3024 141.649 71.3024 141.136C71.3024 140.632 71.1997 140.189 70.9944 139.806C70.7891 139.414 70.5091 139.115 70.1544 138.91C69.7997 138.695 69.3984 138.588 68.9504 138.588ZM83.2469 139.904C83.8442 140.025 84.3249 140.31 84.6889 140.758C85.0622 141.206 85.2489 141.729 85.2489 142.326C85.2489 143.147 84.9736 143.801 84.4229 144.286C83.8722 144.762 83.0742 145 82.0289 145H78.0949V135.116H81.9589C82.9482 135.116 83.7042 135.34 84.2269 135.788C84.7589 136.227 85.0249 136.833 85.0249 137.608C85.0249 138.233 84.8616 138.742 84.5349 139.134C84.2082 139.517 83.7789 139.773 83.2469 139.904ZM79.6909 139.372H81.6649C82.2249 139.372 82.6496 139.241 82.9389 138.98C83.2376 138.719 83.3869 138.355 83.3869 137.888C83.3869 137.431 83.2376 137.071 82.9389 136.81C82.6496 136.549 82.2062 136.418 81.6089 136.418H79.6909V139.372ZM81.7069 143.684C82.3136 143.684 82.7802 143.549 83.1069 143.278C83.4429 142.998 83.6109 142.611 83.6109 142.116C83.6109 141.621 83.4429 141.234 83.1069 140.954C82.7709 140.674 82.2996 140.534 81.6929 140.534H79.6909V143.684H81.7069ZM88.3452 138.798C88.6065 138.294 88.9799 137.897 89.4652 137.608C89.9505 137.309 90.5105 137.16 91.1452 137.16V138.896H90.6692C89.9692 138.896 89.4045 139.069 88.9752 139.414C88.5552 139.75 88.3452 140.31 88.3452 141.094V145H86.7492V137.286H88.3452V138.798ZM95.869 137.188C96.6157 137.188 97.2877 137.347 97.885 137.664C98.4823 137.981 98.949 138.439 99.285 139.036C99.621 139.633 99.789 140.333 99.789 141.136C99.789 141.948 99.621 142.653 99.285 143.25C98.949 143.847 98.4823 144.305 97.885 144.622C97.2877 144.939 96.6157 145.098 95.869 145.098C95.1223 145.098 94.4503 144.939 93.853 144.622C93.265 144.305 92.7983 143.847 92.453 143.25C92.117 142.643 91.949 141.939 91.949 141.136C91.949 140.333 92.117 139.633 92.453 139.036C92.7983 138.439 93.265 137.981 93.853 137.664C94.4503 137.347 95.1223 137.188 95.869 137.188ZM95.869 138.574C95.4583 138.574 95.0803 138.667 94.735 138.854C94.3897 139.041 94.1097 139.33 93.895 139.722C93.6897 140.105 93.587 140.576 93.587 141.136C93.587 141.705 93.6897 142.181 93.895 142.564C94.1097 142.947 94.3897 143.231 94.735 143.418C95.0803 143.605 95.4583 143.698 95.869 143.698C96.2797 143.698 96.6577 143.605 97.003 143.418C97.3483 143.231 97.6237 142.947 97.829 142.564C98.0437 142.181 98.151 141.705 98.151 141.136C98.151 140.576 98.0437 140.105 97.829 139.722C97.6237 139.33 97.3483 139.041 97.003 138.854C96.6577 138.667 96.2797 138.574 95.869 138.574ZM112.131 137.286L109.989 145H108.225L106.321 139.036L104.389 145H102.639L100.497 137.286H102.107L103.577 143.53L105.509 137.286H107.189L109.149 143.53L110.619 137.286H112.131ZM117.53 137.16C118.426 137.16 119.145 137.449 119.686 138.028C120.227 138.607 120.498 139.433 120.498 140.506V145H118.902V140.674C118.902 139.983 118.725 139.451 118.37 139.078C118.015 138.695 117.53 138.504 116.914 138.504C116.279 138.504 115.771 138.709 115.388 139.12C115.005 139.521 114.814 140.114 114.814 140.898V145H113.218V137.286H114.814V138.98C115.019 138.401 115.365 137.953 115.85 137.636C116.335 137.319 116.895 137.16 117.53 137.16Z" fill="white"/>
<path opacity="0.8" d="M26.46 163.468C26.052 163.468 25.704 163.328 25.416 163.048C25.136 162.76 24.996 162.412 24.996 162.004C24.996 161.588 25.136 161.24 25.416 160.96C25.704 160.672 26.052 160.528 26.46 160.528C26.876 160.528 27.228 160.672 27.516 160.96C27.804 161.24 27.948 161.588 27.948 162.004C27.948 162.412 27.804 162.76 27.516 163.048C27.228 163.328 26.876 163.468 26.46 163.468ZM31.4053 163.468C30.9973 163.468 30.6493 163.328 30.3613 163.048C30.0813 162.76 29.9413 162.412 29.9413 162.004C29.9413 161.588 30.0813 161.24 30.3613 160.96C30.6493 160.672 30.9973 160.528 31.4053 160.528C31.8213 160.528 32.1733 160.672 32.4613 160.96C32.7493 161.24 32.8933 161.588 32.8933 162.004C32.8933 162.412 32.7493 162.76 32.4613 163.048C32.1733 163.328 31.8213 163.468 31.4053 163.468ZM36.3506 163.468C35.9426 163.468 35.5946 163.328 35.3066 163.048C35.0266 162.76 34.8866 162.412 34.8866 162.004C34.8866 161.588 35.0266 161.24 35.3066 160.96C35.5946 160.672 35.9426 160.528 36.3506 160.528C36.7666 160.528 37.1186 160.672 37.4066 160.96C37.6946 161.24 37.8386 161.588 37.8386 162.004C37.8386 162.412 37.6946 162.76 37.4066 163.048C37.1186 163.328 36.7666 163.468 36.3506 163.468ZM41.2959 163.468C40.8879 163.468 40.5399 163.328 40.2519 163.048C39.9719 162.76 39.8319 162.412 39.8319 162.004C39.8319 161.588 39.9719 161.24 40.2519 160.96C40.5399 160.672 40.8879 160.528 41.2959 160.528C41.7119 160.528 42.0639 160.672 42.3519 160.96C42.6399 161.24 42.7839 161.588 42.7839 162.004C42.7839 162.412 42.6399 162.76 42.3519 163.048C42.0639 163.328 41.7119 163.468 41.2959 163.468ZM52.6397 163.468C52.2317 163.468 51.8837 163.328 51.5957 163.048C51.3157 162.76 51.1757 162.412 51.1757 162.004C51.1757 161.588 51.3157 161.24 51.5957 160.96C51.8837 160.672 52.2317 160.528 52.6397 160.528C53.0557 160.528 53.4077 160.672 53.6957 160.96C53.9837 161.24 54.1277 161.588 54.1277 162.004C54.1277 162.412 53.9837 162.76 53.6957 163.048C53.4077 163.328 53.0557 163.468 52.6397 163.468ZM57.585 163.468C57.177 163.468 56.829 163.328 56.541 163.048C56.261 162.76 56.121 162.412 56.121 162.004C56.121 161.588 56.261 161.24 56.541 160.96C56.829 160.672 57.177 160.528 57.585 160.528C58.001 160.528 58.353 160.672 58.641 160.96C58.929 161.24 59.073 161.588 59.073 162.004C59.073 162.412 58.929 162.76 58.641 163.048C58.353 163.328 58.001 163.468 57.585 163.468ZM62.5303 163.468C62.1223 163.468 61.7743 163.328 61.4863 163.048C61.2063 162.76 61.0663 162.412 61.0663 162.004C61.0663 161.588 61.2063 161.24 61.4863 160.96C61.7743 160.672 62.1223 160.528 62.5303 160.528C62.9463 160.528 63.2983 160.672 63.5863 160.96C63.8743 161.24 64.0183 161.588 64.0183 162.004C64.0183 162.412 63.8743 162.76 63.5863 163.048C63.2983 163.328 62.9463 163.468 62.5303 163.468ZM67.4756 163.468C67.0676 163.468 66.7196 163.328 66.4316 163.048C66.1516 162.76 66.0116 162.412 66.0116 162.004C66.0116 161.588 66.1516 161.24 66.4316 160.96C66.7196 160.672 67.0676 160.528 67.4756 160.528C67.8916 160.528 68.2436 160.672 68.5316 160.96C68.8196 161.24 68.9636 161.588 68.9636 162.004C68.9636 162.412 68.8196 162.76 68.5316 163.048C68.2436 163.328 67.8916 163.468 67.4756 163.468ZM78.8194 163.468C78.4114 163.468 78.0634 163.328 77.7754 163.048C77.4954 162.76 77.3554 162.412 77.3554 162.004C77.3554 161.588 77.4954 161.24 77.7754 160.96C78.0634 160.672 78.4114 160.528 78.8194 160.528C79.2354 160.528 79.5874 160.672 79.8754 160.96C80.1634 161.24 80.3074 161.588 80.3074 162.004C80.3074 162.412 80.1634 162.76 79.8754 163.048C79.5874 163.328 79.2354 163.468 78.8194 163.468ZM83.7647 163.468C83.3567 163.468 83.0087 163.328 82.7207 163.048C82.4407 162.76 82.3007 162.412 82.3007 162.004C82.3007 161.588 82.4407 161.24 82.7207 160.96C83.0087 160.672 83.3567 160.528 83.7647 160.528C84.1807 160.528 84.5327 160.672 84.8207 160.96C85.1087 161.24 85.2527 161.588 85.2527 162.004C85.2527 162.412 85.1087 162.76 84.8207 163.048C84.5327 163.328 84.1807 163.468 83.7647 163.468ZM88.71 163.468C88.302 163.468 87.954 163.328 87.666 163.048C87.386 162.76 87.246 162.412 87.246 162.004C87.246 161.588 87.386 161.24 87.666 160.96C87.954 160.672 88.302 160.528 88.71 160.528C89.126 160.528 89.478 160.672 89.766 160.96C90.054 161.24 90.198 161.588 90.198 162.004C90.198 162.412 90.054 162.76 89.766 163.048C89.478 163.328 89.126 163.468 88.71 163.468ZM93.6553 163.468C93.2473 163.468 92.8993 163.328 92.6113 163.048C92.3313 162.76 92.1913 162.412 92.1913 162.004C92.1913 161.588 92.3313 161.24 92.6113 160.96C92.8993 160.672 93.2473 160.528 93.6553 160.528C94.0713 160.528 94.4233 160.672 94.7113 160.96C94.9993 161.24 95.1433 161.588 95.1433 162.004C95.1433 162.412 94.9993 162.76 94.7113 163.048C94.4233 163.328 94.0713 163.468 93.6553 163.468ZM104.867 161.488C104.419 161.312 104.075 161.056 103.835 160.72C103.595 160.384 103.475 159.976 103.475 159.496C103.475 159.064 103.583 158.676 103.799 158.332C104.015 157.98 104.335 157.704 104.759 157.504C105.191 157.296 105.711 157.192 106.319 157.192C106.927 157.192 107.443 157.296 107.867 157.504C108.299 157.704 108.623 157.98 108.839 158.332C109.063 158.676 109.175 159.064 109.175 159.496C109.175 159.96 109.051 160.368 108.803 160.72C108.555 161.064 108.215 161.32 107.783 161.488C108.279 161.64 108.671 161.908 108.959 162.292C109.255 162.668 109.403 163.124 109.403 163.66C109.403 164.18 109.275 164.636 109.019 165.028C108.763 165.412 108.399 165.712 107.927 165.928C107.463 166.136 106.927 166.24 106.319 166.24C105.711 166.24 105.175 166.136 104.711 165.928C104.255 165.712 103.899 165.412 103.643 165.028C103.387 164.636 103.259 164.18 103.259 163.66C103.259 163.124 103.403 162.664 103.691 162.28C103.979 161.896 104.371 161.632 104.867 161.488ZM108.119 159.628C108.119 159.14 107.959 158.764 107.639 158.5C107.319 158.236 106.879 158.104 106.319 158.104C105.767 158.104 105.331 158.236 105.011 158.5C104.691 158.764 104.531 159.144 104.531 159.64C104.531 160.088 104.695 160.448 105.023 160.72C105.359 160.992 105.791 161.128 106.319 161.128C106.855 161.128 107.287 160.992 107.615 160.72C107.951 160.44 108.119 160.076 108.119 159.628ZM106.319 161.968C105.727 161.968 105.243 162.108 104.867 162.388C104.491 162.66 104.303 163.072 104.303 163.624C104.303 164.136 104.483 164.548 104.843 164.86C105.211 165.172 105.703 165.328 106.319 165.328C106.935 165.328 107.423 165.172 107.783 164.86C108.143 164.548 108.323 164.136 108.323 163.624C108.323 163.088 108.139 162.68 107.771 162.4C107.403 162.112 106.919 161.968 106.319 161.968ZM112.437 161.488C111.989 161.312 111.645 161.056 111.405 160.72C111.165 160.384 111.045 159.976 111.045 159.496C111.045 159.064 111.153 158.676 111.369 158.332C111.585 157.98 111.905 157.704 112.329 157.504C112.761 157.296 113.281 157.192 113.889 157.192C114.497 157.192 115.013 157.296 115.437 157.504C115.869 157.704 116.193 157.98 116.409 158.332C116.633 158.676 116.745 159.064 116.745 159.496C116.745 159.96 116.621 160.368 116.373 160.72C116.125 161.064 115.785 161.32 115.353 161.488C115.849 161.64 116.241 161.908 116.529 162.292C116.825 162.668 116.973 163.124 116.973 163.66C116.973 164.18 116.845 164.636 116.589 165.028C116.333 165.412 115.969 165.712 115.497 165.928C115.033 166.136 114.497 166.24 113.889 166.24C113.281 166.24 112.745 166.136 112.281 165.928C111.825 165.712 111.469 165.412 111.213 165.028C110.957 164.636 110.829 164.18 110.829 163.66C110.829 163.124 110.973 162.664 111.261 162.28C111.549 161.896 111.941 161.632 112.437 161.488ZM115.689 159.628C115.689 159.14 115.529 158.764 115.209 158.5C114.889 158.236 114.449 158.104 113.889 158.104C113.337 158.104 112.901 158.236 112.581 158.5C112.261 158.764 112.101 159.144 112.101 159.64C112.101 160.088 112.265 160.448 112.593 160.72C112.929 160.992 113.361 161.128 113.889 161.128C114.425 161.128 114.857 160.992 115.185 160.72C115.521 160.44 115.689 160.076 115.689 159.628ZM113.889 161.968C113.297 161.968 112.813 162.108 112.437 162.388C112.061 162.66 111.873 163.072 111.873 163.624C111.873 164.136 112.053 164.548 112.413 164.86C112.781 165.172 113.273 165.328 113.889 165.328C114.505 165.328 114.993 165.172 115.353 164.86C115.713 164.548 115.893 164.136 115.893 163.624C115.893 163.088 115.709 162.68 115.341 162.4C114.973 162.112 114.489 161.968 113.889 161.968ZM123.956 158.272H119.744V161.008C119.928 160.752 120.2 160.544 120.56 160.384C120.92 160.216 121.308 160.132 121.724 160.132C122.388 160.132 122.928 160.272 123.344 160.552C123.76 160.824 124.056 161.18 124.232 161.62C124.416 162.052 124.508 162.512 124.508 163C124.508 163.576 124.4 164.092 124.184 164.548C123.968 165.004 123.636 165.364 123.188 165.628C122.748 165.892 122.2 166.024 121.544 166.024C120.704 166.024 120.024 165.808 119.504 165.376C118.984 164.944 118.668 164.368 118.556 163.648H119.624C119.728 164.104 119.948 164.46 120.284 164.716C120.62 164.972 121.044 165.1 121.556 165.1C122.188 165.1 122.664 164.912 122.984 164.536C123.304 164.152 123.464 163.648 123.464 163.024C123.464 162.4 123.304 161.92 122.984 161.584C122.664 161.24 122.192 161.068 121.568 161.068C121.144 161.068 120.772 161.172 120.452 161.38C120.14 161.58 119.912 161.856 119.768 162.208H118.736V157.312H123.956V158.272ZM125.695 164.068V163.24L129.907 157.408H131.215V163.12H132.415V164.068H131.215V166H130.135V164.068H125.695ZM130.183 158.548L126.955 163.12H130.183V158.548Z" fill="white"/>
<path d="M249.679 158.56V157.54H252.103V166H250.951V158.56H249.679ZM254.473 165.16C255.833 164.248 256.921 163.344 257.737 162.448C258.553 161.544 258.961 160.704 258.961 159.928C258.961 159.448 258.837 159.064 258.589 158.776C258.349 158.48 257.957 158.332 257.413 158.332C256.853 158.332 256.429 158.512 256.141 158.872C255.853 159.224 255.693 159.712 255.661 160.336H254.581C254.637 159.392 254.929 158.668 255.457 158.164C255.985 157.652 256.665 157.396 257.497 157.396C258.289 157.396 258.917 157.608 259.381 158.032C259.845 158.456 260.077 159.056 260.077 159.832C260.077 160.472 259.869 161.124 259.453 161.788C259.045 162.444 258.529 163.056 257.905 163.624C257.289 164.184 256.653 164.66 255.997 165.052H260.293V165.952H254.473V165.16ZM266.205 154.696L262.917 168.052H261.861L265.137 154.696H266.205ZM267.41 158.56V157.54H269.834V166H268.682V158.56H267.41ZM273.619 163.624C273.691 164.128 273.867 164.516 274.147 164.788C274.427 165.06 274.811 165.196 275.299 165.196C275.971 165.196 276.479 164.936 276.823 164.416C277.167 163.896 277.339 163.072 277.339 161.944C277.339 161.728 277.335 161.564 277.327 161.452C277.215 161.932 276.943 162.316 276.511 162.604C276.079 162.892 275.571 163.036 274.987 163.036C274.147 163.036 273.487 162.784 273.007 162.28C272.527 161.776 272.287 161.072 272.287 160.168C272.287 159.64 272.391 159.16 272.599 158.728C272.807 158.296 273.123 157.956 273.547 157.708C273.979 157.452 274.511 157.324 275.143 157.324C276.359 157.324 277.191 157.7 277.639 158.452C278.095 159.196 278.323 160.22 278.323 161.524C278.323 163.012 278.091 164.148 277.627 164.932C277.163 165.708 276.387 166.096 275.299 166.096C274.491 166.096 273.855 165.868 273.391 165.412C272.935 164.948 272.667 164.352 272.587 163.624H273.619ZM277.219 160.336C277.219 159.76 277.047 159.272 276.703 158.872C276.367 158.472 275.859 158.272 275.179 158.272C274.619 158.272 274.171 158.44 273.835 158.776C273.499 159.112 273.331 159.58 273.331 160.18C273.331 160.82 273.499 161.312 273.835 161.656C274.171 162 274.631 162.172 275.215 162.172C275.551 162.172 275.871 162.104 276.175 161.968C276.487 161.832 276.739 161.624 276.931 161.344C277.123 161.064 277.219 160.728 277.219 160.336Z" fill="white"/>
<path fill-rule="evenodd" clip-rule="evenodd" d="M262.116 35.4999C262.116 41.8525 256.942 46.9999 250.558 46.9999C244.174 46.9999 239 41.8514 239 35.4999C239 29.1485 244.175 24 250.558 24C256.941 24 262.116 29.1485 262.116 35.4999Z" fill="#FF3D57"/>
<path fill-rule="evenodd" clip-rule="evenodd" d="M264.439 24C261.847 24 259.46 24.8591 257.532 26.2931L257.541 26.2943C257.921 26.6588 258.339 26.9154 258.662 27.335L256.257 27.3729C255.88 27.7513 255.537 28.163 255.213 28.5908H259.454C259.776 28.976 260.074 29.3108 260.345 29.7362H254.444C254.228 30.1065 254.028 30.4872 253.853 30.8827H261.017C261.204 31.2771 261.372 31.575 261.514 31.9925H253.429C253.301 32.3893 253.191 32.7952 253.108 33.2092H261.853C261.938 33.6071 262.004 33.975 262.049 34.35H252.934C252.896 34.7284 252.876 35.1125 252.876 35.5001H262.115C262.115 35.9072 262.086 36.2843 262.044 36.6501H252.934C252.973 37.04 253.031 37.4229 253.108 37.8002H261.839C261.749 38.1727 261.644 38.5476 261.514 38.9363H253.402C253.525 39.3296 253.674 39.7114 253.837 40.084H261.017C260.818 40.5026 260.592 40.8372 260.344 41.2293H254.423C254.657 41.6318 254.915 42.0159 255.194 42.3839L259.454 42.4471C259.091 42.8806 258.625 43.1417 258.2 43.5212C258.223 43.5396 257.522 43.519 256.14 43.4971C258.242 45.6546 261.18 47 264.439 47C270.824 47 276 41.8514 276 35.5001C276 29.1487 270.825 24 264.439 24Z" fill="#FDBF5E"/>
<path opacity="0.8" d="M28.62 24.456C29.652 24.456 30.504 24.712 31.176 25.224C31.848 25.728 32.312 26.42 32.568 27.3H31.416C31.2 26.74 30.852 26.296 30.372 25.968C29.892 25.632 29.304 25.464 28.608 25.464C28.056 25.464 27.56 25.6 27.12 25.872C26.688 26.136 26.344 26.52 26.088 27.024C25.84 27.52 25.716 28.104 25.716 28.776C25.716 29.44 25.84 30.02 26.088 30.516C26.344 31.012 26.688 31.396 27.12 31.668C27.56 31.932 28.056 32.064 28.608 32.064C29.304 32.064 29.892 31.9 30.372 31.572C30.852 31.236 31.2 30.788 31.416 30.228H32.568C32.312 31.108 31.848 31.804 31.176 32.316C30.504 32.82 29.652 33.072 28.62 33.072C27.828 33.072 27.128 32.892 26.52 32.532C25.912 32.164 25.436 31.656 25.092 31.008C24.756 30.352 24.588 29.608 24.588 28.776C24.588 27.936 24.756 27.188 25.092 26.532C25.436 25.876 25.912 25.368 26.52 25.008C27.128 24.64 27.828 24.456 28.62 24.456ZM39.8843 26.412V33H38.7923V31.452C38.6243 31.988 38.3243 32.4 37.8923 32.688C37.4683 32.968 36.9723 33.108 36.4043 33.108C35.6443 33.108 35.0283 32.864 34.5563 32.376C34.0843 31.88 33.8483 31.172 33.8483 30.252V26.412H34.9403V30.144C34.9403 30.8 35.1083 31.308 35.4443 31.668C35.7803 32.02 36.2363 32.196 36.8123 32.196C37.4123 32.196 37.8923 32.004 38.2523 31.62C38.6123 31.228 38.7923 30.66 38.7923 29.916V26.412H39.8843ZM42.7258 27.744C42.9418 27.288 43.2578 26.936 43.6738 26.688C44.0898 26.432 44.5858 26.304 45.1618 26.304V27.492H44.8258C44.2098 27.492 43.7058 27.652 43.3138 27.972C42.9218 28.284 42.7258 28.804 42.7258 29.532V33H41.6338V26.412H42.7258V27.744ZM47.3313 27.744C47.5473 27.288 47.8633 26.936 48.2793 26.688C48.6953 26.432 49.1913 26.304 49.7673 26.304V27.492H49.4313C48.8153 27.492 48.3113 27.652 47.9193 27.972C47.5273 28.284 47.3313 28.804 47.3313 29.532V33H46.2393V26.412H47.3313V27.744ZM56.9048 29.34C56.9048 29.572 56.8888 29.772 56.8568 29.94H51.5888C51.6128 30.692 51.8248 31.256 52.2248 31.632C52.6328 32.008 53.1288 32.196 53.7128 32.196C54.2408 32.196 54.6808 32.064 55.0328 31.8C55.3928 31.528 55.6128 31.168 55.6928 30.72H56.8568C56.7768 31.176 56.5968 31.584 56.3168 31.944C56.0448 32.304 55.6888 32.584 55.2488 32.784C54.8088 32.984 54.3128 33.084 53.7608 33.084C53.1288 33.084 52.5688 32.948 52.0808 32.676C51.5928 32.404 51.2088 32.016 50.9288 31.512C50.6568 31 50.5208 30.4 50.5208 29.712C50.5208 29.024 50.6568 28.424 50.9288 27.912C51.2088 27.4 51.5928 27.008 52.0808 26.736C52.5688 26.464 53.1288 26.328 53.7608 26.328C54.4008 26.328 54.9568 26.464 55.4288 26.736C55.9088 27.008 56.2728 27.372 56.5208 27.828C56.7768 28.284 56.9048 28.788 56.9048 29.34ZM55.8008 29.412C55.8248 28.924 55.7448 28.516 55.5608 28.188C55.3768 27.86 55.1248 27.616 54.8048 27.456C54.4848 27.296 54.1368 27.216 53.7608 27.216C53.1608 27.216 52.6568 27.404 52.2488 27.78C51.8408 28.148 51.6208 28.692 51.5888 29.412H55.8008ZM61.801 26.304C62.569 26.304 63.189 26.552 63.661 27.048C64.133 27.536 64.369 28.244 64.369 29.172V33H63.277V29.268C63.277 28.612 63.109 28.108 62.773 27.756C62.437 27.404 61.981 27.228 61.405 27.228C60.805 27.228 60.325 27.424 59.965 27.816C59.605 28.2 59.425 28.764 59.425 29.508V33H58.333V26.412H59.425V27.972C59.593 27.436 59.889 27.024 60.313 26.736C60.745 26.448 61.241 26.304 61.801 26.304ZM69.188 32.04V33H68.372C67.7 33 67.196 32.84 66.86 32.52C66.532 32.2 66.368 31.664 66.368 30.912V27.36H65.384V26.412H66.368V24.768H67.472V26.412H69.176V27.36H67.472V30.936C67.472 31.36 67.548 31.652 67.7 31.812C67.86 31.964 68.132 32.04 68.516 32.04H69.188ZM77.6134 28.62C78.1334 28.732 78.5534 28.98 78.8734 29.364C79.2014 29.748 79.3654 30.2 79.3654 30.72C79.3654 31.408 79.1294 31.96 78.6574 32.376C78.1934 32.792 77.5174 33 76.6294 33H73.4854V24.54H76.5814C77.4294 24.54 78.0734 24.728 78.5134 25.104C78.9534 25.48 79.1734 25.996 79.1734 26.652C79.1734 27.196 79.0254 27.636 78.7294 27.972C78.4414 28.308 78.0694 28.524 77.6134 28.62ZM74.5774 28.248H76.4014C76.9374 28.248 77.3454 28.124 77.6254 27.876C77.9134 27.628 78.0574 27.28 78.0574 26.832C78.0574 26.4 77.9174 26.06 77.6374 25.812C77.3574 25.564 76.9294 25.44 76.3534 25.44H74.5774V28.248ZM76.4254 32.088C77.0014 32.088 77.4454 31.956 77.7574 31.692C78.0774 31.428 78.2374 31.056 78.2374 30.576C78.2374 30.104 78.0734 29.736 77.7454 29.472C77.4254 29.2 76.9774 29.064 76.4014 29.064H74.5774V32.088H76.4254ZM83.4276 26.328C84.0676 26.328 84.6076 26.488 85.0476 26.808C85.4956 27.128 85.8076 27.556 85.9836 28.092V26.412H87.0756V33H85.9836V31.32C85.8076 31.856 85.4956 32.284 85.0476 32.604C84.6076 32.924 84.0676 33.084 83.4276 33.084C82.8436 33.084 82.3236 32.948 81.8676 32.676C81.4116 32.404 81.0516 32.016 80.7876 31.512C80.5316 31 80.4036 30.4 80.4036 29.712C80.4036 29.024 80.5316 28.424 80.7876 27.912C81.0516 27.4 81.4116 27.008 81.8676 26.736C82.3236 26.464 82.8436 26.328 83.4276 26.328ZM83.7396 27.3C83.0676 27.3 82.5276 27.516 82.1196 27.948C81.7196 28.372 81.5196 28.96 81.5196 29.712C81.5196 30.464 81.7196 31.056 82.1196 31.488C82.5276 31.912 83.0676 32.124 83.7396 32.124C84.1716 32.124 84.5556 32.024 84.8916 31.824C85.2356 31.624 85.5036 31.344 85.6956 30.984C85.8876 30.616 85.9836 30.192 85.9836 29.712C85.9836 29.232 85.8876 28.808 85.6956 28.44C85.5036 28.072 85.2356 27.792 84.8916 27.6C84.5556 27.4 84.1716 27.3 83.7396 27.3ZM89.9055 24.12V33H88.8135V24.12H89.9055ZM94.3612 26.328C95.0012 26.328 95.5412 26.488 95.9812 26.808C96.4292 27.128 96.7412 27.556 96.9172 28.092V26.412H98.0092V33H96.9172V31.32C96.7412 31.856 96.4292 32.284 95.9812 32.604C95.5412 32.924 95.0012 33.084 94.3612 33.084C93.7772 33.084 93.2572 32.948 92.8012 32.676C92.3452 32.404 91.9852 32.016 91.7212 31.512C91.4652 31 91.3372 30.4 91.3372 29.712C91.3372 29.024 91.4652 28.424 91.7212 27.912C91.9852 27.4 92.3452 27.008 92.8012 26.736C93.2572 26.464 93.7772 26.328 94.3612 26.328ZM94.6732 27.3C94.0012 27.3 93.4612 27.516 93.0532 27.948C92.6532 28.372 92.4532 28.96 92.4532 29.712C92.4532 30.464 92.6532 31.056 93.0532 31.488C93.4612 31.912 94.0012 32.124 94.6732 32.124C95.1052 32.124 95.4892 32.024 95.8252 31.824C96.1692 31.624 96.4372 31.344 96.6292 30.984C96.8212 30.616 96.9172 30.192 96.9172 29.712C96.9172 29.232 96.8212 28.808 96.6292 28.44C96.4372 28.072 96.1692 27.792 95.8252 27.6C95.4892 27.4 95.1052 27.3 94.6732 27.3ZM103.215 26.304C103.983 26.304 104.603 26.552 105.075 27.048C105.547 27.536 105.783 28.244 105.783 29.172V33H104.691V29.268C104.691 28.612 104.523 28.108 104.187 27.756C103.851 27.404 103.395 27.228 102.819 27.228C102.219 27.228 101.739 27.424 101.379 27.816C101.019 28.2 100.839 28.764 100.839 29.508V33H99.7471V26.412H100.839V27.972C101.007 27.436 101.303 27.024 101.727 26.736C102.159 26.448 102.655 26.304 103.215 26.304ZM110.374 26.328C111.214 26.328 111.91 26.552 112.462 27C113.014 27.448 113.354 28.048 113.482 28.8H112.33C112.25 28.328 112.03 27.96 111.67 27.696C111.318 27.424 110.878 27.288 110.35 27.288C109.966 27.288 109.614 27.376 109.294 27.552C108.982 27.728 108.73 28 108.538 28.368C108.346 28.728 108.25 29.176 108.25 29.712C108.25 30.248 108.346 30.7 108.538 31.068C108.73 31.428 108.982 31.696 109.294 31.872C109.614 32.048 109.966 32.136 110.35 32.136C110.878 32.136 111.318 32 111.67 31.728C112.03 31.456 112.25 31.084 112.33 30.612H113.482C113.354 31.372 113.014 31.976 112.462 32.424C111.91 32.864 111.214 33.084 110.374 33.084C109.742 33.084 109.182 32.948 108.694 32.676C108.206 32.404 107.822 32.016 107.542 31.512C107.27 31 107.134 30.4 107.134 29.712C107.134 29.024 107.27 28.424 107.542 27.912C107.822 27.4 108.206 27.008 108.694 26.736C109.182 26.464 109.742 26.328 110.374 26.328ZM120.971 29.34C120.971 29.572 120.955 29.772 120.923 29.94H115.655C115.679 30.692 115.891 31.256 116.291 31.632C116.699 32.008 117.195 32.196 117.779 32.196C118.307 32.196 118.747 32.064 119.099 31.8C119.459 31.528 119.679 31.168 119.759 30.72H120.923C120.843 31.176 120.663 31.584 120.383 31.944C120.111 32.304 119.755 32.584 119.315 32.784C118.875 32.984 118.379 33.084 117.827 33.084C117.195 33.084 116.635 32.948 116.147 32.676C115.659 32.404 115.275 32.016 114.995 31.512C114.723 31 114.587 30.4 114.587 29.712C114.587 29.024 114.723 28.424 114.995 27.912C115.275 27.4 115.659 27.008 116.147 26.736C116.635 26.464 117.195 26.328 117.827 26.328C118.467 26.328 119.023 26.464 119.495 26.736C119.975 27.008 120.339 27.372 120.587 27.828C120.843 28.284 120.971 28.788 120.971 29.34ZM119.867 29.412C119.891 28.924 119.811 28.516 119.627 28.188C119.443 27.86 119.191 27.616 118.871 27.456C118.551 27.296 118.203 27.216 117.827 27.216C117.227 27.216 116.723 27.404 116.315 27.78C115.907 28.148 115.687 28.692 115.655 29.412H119.867Z" fill="white"/>
<path d="M28.9 55.192C27.0333 54.2213 26.1 52.7187 26.1 50.684C26.1 49.676 26.352 48.7613 26.856 47.94C27.3787 47.1 28.1533 46.4373 29.18 45.952C30.2253 45.448 31.4947 45.196 32.988 45.196C34.4813 45.196 35.7413 45.448 36.768 45.952C37.8133 46.4373 38.588 47.1 39.092 47.94C39.6147 48.7613 39.876 49.676 39.876 50.684C39.876 51.7107 39.624 52.616 39.12 53.4C38.616 54.1653 37.944 54.7627 37.104 55.192C38.1307 55.64 38.9333 56.2933 39.512 57.152C40.0907 58.0107 40.38 59.028 40.38 60.204C40.38 61.4733 40.0533 62.584 39.4 63.536C38.7653 64.4693 37.888 65.188 36.768 65.692C35.648 66.196 34.388 66.448 32.988 66.448C31.588 66.448 30.328 66.196 29.208 65.692C28.1067 65.188 27.2293 64.4693 26.576 63.536C25.9413 62.584 25.624 61.4733 25.624 60.204C25.624 59.028 25.9133 58.0107 26.492 57.152C27.0707 56.2747 27.8733 55.6213 28.9 55.192ZM36.068 51.244C36.068 50.3293 35.788 49.62 35.228 49.116C34.6867 48.612 33.94 48.36 32.988 48.36C32.0547 48.36 31.308 48.612 30.748 49.116C30.2067 49.62 29.936 50.3387 29.936 51.272C29.936 52.112 30.216 52.784 30.776 53.288C31.3547 53.792 32.092 54.044 32.988 54.044C33.884 54.044 34.6213 53.792 35.2 53.288C35.7787 52.7653 36.068 52.084 36.068 51.244ZM32.988 56.9C31.924 56.9 31.056 57.1707 30.384 57.712C29.7307 58.2533 29.404 59.028 29.404 60.036C29.404 60.9693 29.7213 61.7347 30.356 62.332C31.0093 62.9107 31.8867 63.2 32.988 63.2C34.0893 63.2 34.9573 62.9013 35.592 62.304C36.2267 61.7067 36.544 60.9507 36.544 60.036C36.544 59.0467 36.2173 58.2813 35.564 57.74C34.9107 57.18 34.052 56.9 32.988 56.9ZM43.4762 55.528C43.4762 52.2987 44.0549 49.7693 45.2122 47.94C46.3882 46.1107 48.3295 45.196 51.0362 45.196C53.7429 45.196 55.6749 46.1107 56.8322 47.94C58.0082 49.7693 58.5962 52.2987 58.5962 55.528C58.5962 58.776 58.0082 61.324 56.8322 63.172C55.6749 65.02 53.7429 65.944 51.0362 65.944C48.3295 65.944 46.3882 65.02 45.2122 63.172C44.0549 61.324 43.4762 58.776 43.4762 55.528ZM54.7322 55.528C54.7322 54.1467 54.6389 52.9893 54.4522 52.056C54.2842 51.104 53.9295 50.3293 53.3882 49.732C52.8655 49.1347 52.0815 48.836 51.0362 48.836C49.9909 48.836 49.1975 49.1347 48.6562 49.732C48.1335 50.3293 47.7789 51.104 47.5922 52.056C47.4242 52.9893 47.3402 54.1467 47.3402 55.528C47.3402 56.9467 47.4242 58.1413 47.5922 59.112C47.7602 60.064 48.1149 60.8387 48.6562 61.436C49.1975 62.0147 49.9909 62.304 51.0362 62.304C52.0815 62.304 52.8749 62.0147 53.4162 61.436C53.9575 60.8387 54.3122 60.064 54.4802 59.112C54.6482 58.1413 54.7322 56.9467 54.7322 55.528ZM66.3098 61.884L63.0338 69.752H60.5138L62.3338 61.884H66.3098ZM81.6791 48.556L74.2311 66H70.2551L77.7591 49.004H68.1831V45.644H81.6791V48.556ZM84.027 55.528C84.027 52.2987 84.6056 49.7693 85.763 47.94C86.939 46.1107 88.8803 45.196 91.587 45.196C94.2936 45.196 96.2256 46.1107 97.383 47.94C98.559 49.7693 99.147 52.2987 99.147 55.528C99.147 58.776 98.559 61.324 97.383 63.172C96.2256 65.02 94.2936 65.944 91.587 65.944C88.8803 65.944 86.939 65.02 85.763 63.172C84.6056 61.324 84.027 58.776 84.027 55.528ZM95.283 55.528C95.283 54.1467 95.1896 52.9893 95.003 52.056C94.835 51.104 94.4803 50.3293 93.939 49.732C93.4163 49.1347 92.6323 48.836 91.587 48.836C90.5416 48.836 89.7483 49.1347 89.207 49.732C88.6843 50.3293 88.3296 51.104 88.143 52.056C87.975 52.9893 87.891 54.1467 87.891 55.528C87.891 56.9467 87.975 58.1413 88.143 59.112C88.311 60.064 88.6656 60.8387 89.207 61.436C89.7483 62.0147 90.5416 62.304 91.587 62.304C92.6323 62.304 93.4256 62.0147 93.967 61.436C94.5083 60.8387 94.863 60.064 95.031 59.112C95.199 58.1413 95.283 56.9467 95.283 55.528ZM102.129 55.528C102.129 52.2987 102.707 49.7693 103.865 47.94C105.041 46.1107 106.982 45.196 109.689 45.196C112.395 45.196 114.327 46.1107 115.485 47.94C116.661 49.7693 117.249 52.2987 117.249 55.528C117.249 58.776 116.661 61.324 115.485 63.172C114.327 65.02 112.395 65.944 109.689 65.944C106.982 65.944 105.041 65.02 103.865 63.172C102.707 61.324 102.129 58.776 102.129 55.528ZM113.385 55.528C113.385 54.1467 113.291 52.9893 113.105 52.056C112.937 51.104 112.582 50.3293 112.041 49.732C111.518 49.1347 110.734 48.836 109.689 48.836C108.643 48.836 107.85 49.1347 107.309 49.732C106.786 50.3293 106.431 51.104 106.245 52.056C106.077 52.9893 105.993 54.1467 105.993 55.528C105.993 56.9467 106.077 58.1413 106.245 59.112C106.413 60.064 106.767 60.8387 107.309 61.436C107.85 62.0147 108.643 62.304 109.689 62.304C110.734 62.304 111.527 62.0147 112.069 61.436C112.61 60.8387 112.965 60.064 113.133 59.112C113.301 58.1413 113.385 56.9467 113.385 55.528ZM122.414 66.196C121.705 66.196 121.117 65.9813 120.65 65.552C120.202 65.104 119.978 64.5533 119.978 63.9C119.978 63.2467 120.202 62.7053 120.65 62.276C121.117 61.828 121.705 61.604 122.414 61.604C123.105 61.604 123.674 61.828 124.122 62.276C124.57 62.7053 124.794 63.2467 124.794 63.9C124.794 64.5533 124.57 65.104 124.122 65.552C123.674 65.9813 123.105 66.196 122.414 66.196ZM127.504 55.528C127.504 52.2987 128.082 49.7693 129.24 47.94C130.416 46.1107 132.357 45.196 135.064 45.196C137.77 45.196 139.702 46.1107 140.86 47.94C142.036 49.7693 142.624 52.2987 142.624 55.528C142.624 58.776 142.036 61.324 140.86 63.172C139.702 65.02 137.77 65.944 135.064 65.944C132.357 65.944 130.416 65.02 129.24 63.172C128.082 61.324 127.504 58.776 127.504 55.528ZM138.76 55.528C138.76 54.1467 138.666 52.9893 138.48 52.056C138.312 51.104 137.957 50.3293 137.416 49.732C136.893 49.1347 136.109 48.836 135.064 48.836C134.018 48.836 133.225 49.1347 132.684 49.732C132.161 50.3293 131.806 51.104 131.62 52.056C131.452 52.9893 131.368 54.1467 131.368 55.528C131.368 56.9467 131.452 58.1413 131.62 59.112C131.788 60.064 132.142 60.8387 132.684 61.436C133.225 62.0147 134.018 62.304 135.064 62.304C136.109 62.304 136.902 62.0147 137.444 61.436C137.985 60.8387 138.34 60.064 138.508 59.112C138.676 58.1413 138.76 56.9467 138.76 55.528ZM145.605 55.528C145.605 52.2987 146.184 49.7693 147.341 47.94C148.517 46.1107 150.458 45.196 153.165 45.196C155.872 45.196 157.804 46.1107 158.961 47.94C160.137 49.7693 160.725 52.2987 160.725 55.528C160.725 58.776 160.137 61.324 158.961 63.172C157.804 65.02 155.872 65.944 153.165 65.944C150.458 65.944 148.517 65.02 147.341 63.172C146.184 61.324 145.605 58.776 145.605 55.528ZM156.861 55.528C156.861 54.1467 156.768 52.9893 156.581 52.056C156.413 51.104 156.058 50.3293 155.517 49.732C154.994 49.1347 154.21 48.836 153.165 48.836C152.12 48.836 151.326 49.1347 150.785 49.732C150.262 50.3293 149.908 51.104 149.721 52.056C149.553 52.9893 149.469 54.1467 149.469 55.528C149.469 56.9467 149.553 58.1413 149.721 59.112C149.889 60.064 150.244 60.8387 150.785 61.436C151.326 62.0147 152.12 62.304 153.165 62.304C154.21 62.304 155.004 62.0147 155.545 61.436C156.086 60.8387 156.441 60.064 156.609 59.112C156.777 58.1413 156.861 56.9467 156.861 55.528Z" fill="white"/>
</g>
<defs>
<clipPath id="clip0_1177_2106">
<rect width="300" height="190" fill="white"/>
</clipPath>
</defs>
</svg>
